PathFileType	4	(X/Y/Z)	Patient4_TMGait_0pt6_01_right_13.trc.trc
DataRate	CameraRate	NumFrames	NumMarkers	Units	OrigDataRate	OrigDataStartFrame	OrigNumFrames
80.924855491329	80.924855491329	4	33	mm	80.924855491329	106	       141
Frame#	Time	Sacral			L.Shoulder			Chest			R.Shoulder			Neck			R.ASIS			L.ASIS			R.Thigh.Superior			R.Thigh.Lateral			R.Thigh.Inferior			R.Patella			L.Thigh.Superior			L.Thigh.Lateral			L.Thigh.Inferior			L.Patella			L.Shank.Superior			L.Shank.Lateral			L.Shank.Inferior			R.Shank.Superior			R.Shank.Lateral			R.Shank.Inferior			R.Heel			R.Midfoot.Superior			R.Midfoot.Lateral			R.Toe			L.Heel			L.Midfoot.Lateral			L.Midfoot.Superior			L.Toe			L.Elbow			L.Wrist			R.Elbow			R.Wrist			
		X1	Y1	Z1	X2	Y2	Z2	X3	Y3	Z3	X4	Y4	Z4	X5	Y5	Z5	X6	Y6	Z6	X7	Y7	Z7	X8	Y8	Z8	X9	Y9	Z9	X10	Y10	Z10	X11	Y11	Z11	X12	Y12	Z12	X13	Y13	Z13	X14	Y14	Z14	X15	Y15	Z15	X16	Y16	Z16	X17	Y17	Z17	X18	Y18	Z18	X19	Y19	Z19	X20	Y20	Z20	X21	Y21	Z21	X22	Y22	Z22	X23	Y23	Z23	X24	Y24	Z24	X25	Y25	Z25	X26	Y26	Z26	X27	Y27	Z27	X28	Y28	Z28	X29	Y29	Z29	X30	Y30	Z30	X31	Y31	Z31	X32	Y32	Z32	X33	Y33	Z33	

106	16.477500000000	655.121578940913	1009.330255003996	432.348065447311	820.767930661241	1446.422705258999	261.074009057125	923.931402132512	1375.765397584574	420.524820766059	835.827680049752	1438.048475995480	595.697924402703	799.494005822281	1500.645453535163	416.830239426369	881.373968272108	948.815761661440	547.724659713324	871.194105366220	971.161633831288	273.835088439385	972.103928874106	790.045868760387	509.049742507313	947.372020911068	666.615312454755	583.281245843501	1035.018697152672	634.181296947747	498.129887837859	1063.516396521384	521.806939223129	518.585075751633	903.865981282186	746.552488211477	306.601897761960	803.559756996087	637.503195695292	249.485813445691	877.286188335469	554.098503700604	316.165227174098	870.371488178822	485.962050418599	329.122573934410	843.284021359047	415.825572658575	321.605711468255	751.003785881032	303.091310116223	274.867617725419	797.546637743764	192.632837255156	348.845677292387	991.835860238397	441.967807296367	527.316623257670	873.212374353654	392.227360693609	585.776227708937	869.048369871447	282.062527562495	537.934129841682	674.563120664492	209.646782240937	505.014991372850	842.663354812189	155.040264248425	551.343789908251	732.201947452734	152.920841396547	581.452455865808	908.318978226082	44.483109761056	583.651549267628	665.127673090748	38.758983730034	396.742230462535	736.057997792305	35.317671978451	313.190550761540	820.993802404086	96.190907935910	336.487159193671	947.958020902530	40.850245979610	302.643504994845	877.345677032523	1107.691013938697	115.629826492551	1100.607764924849	971.537669036072	115.013512326605	743.986098930900	1097.245027699473	692.029298732362	752.707556541456	835.697195594232	695.928163832081	
107	16.489857142857	654.331407344951	1009.632271125721	431.832630185959	822.384576109320	1446.600429225424	261.274437435036	924.458313366891	1375.389222750653	421.161089837931	835.728916210130	1438.038980305370	595.876459613115	800.236430393287	1500.665167592252	417.001016553257	880.109978511536	948.911060325560	547.709139960030	870.524977157726	971.009310246805	273.779680996176	971.819409089362	791.812365666630	509.397833682221	947.521667371116	667.687065116734	583.333931884979	1036.179098712286	636.444758282211	499.100092367880	1065.880909382929	525.590306989278	519.304355734462	900.957960500692	745.625837113026	306.698891448207	799.451829857418	637.585407490749	249.135267970495	871.989810446673	553.411295272068	315.893226641454	864.342566532576	485.464888517039	328.774452808168	837.144495731017	415.589266554598	321.289909801277	744.408178152000	303.208684407331	274.604041690097	790.543163578942	192.568027775629	348.600002355861	998.073231757186	443.456533351117	527.321122382914	882.376685123113	387.234072647686	585.290836113038	884.311538004813	277.220193384648	536.896784494855	694.057860570120	193.105635291635	503.065125685724	865.100505302544	150.087019272809	550.077907259185	755.075953170671	141.077889673796	580.185575709564	937.934099145442	44.671761497628	583.730792091598	657.712553369885	38.907038961094	396.629543061834	728.629700810727	35.337707974208	313.166396650953	813.609295448226	96.167884242213	336.367284813982	940.539323486529	40.703484928870	302.573212027942	881.440369120083	1108.813262738511	115.589166296981	1110.613932137282	983.145372449885	115.224707146779	734.679701406561	1100.428760313673	691.533347762766	735.106464636779	838.875597628579	695.114229023328	
108	16.502214285714	653.568391434175	1009.853801299607	431.318800537327	823.998382442340	1446.661261018003	261.584009779670	925.009369960836	1374.903897827319	421.881908893207	835.695956960650	1437.935700809440	596.151043645798	800.993855973934	1500.587279474381	417.257068647219	878.884829818185	948.884845621268	547.821069766524	869.848139157254	970.737869021448	273.831987467582	971.112896883712	792.878716462755	509.987386699023	946.630751947781	668.104172981838	583.498493531756	1036.158966417341	637.724966558163	500.229261398570	1066.794321065722	528.701741145592	520.084665781792	898.144686435665	744.678257507101	306.851764330764	795.476715410165	637.618699403649	248.838190704666	866.846664677860	552.709382901963	315.667865003231	858.506648217463	484.954238102054	328.449968300308	831.157820666814	415.319856331213	321.014841442390	737.919126770310	303.325297443696	274.381120062184	783.600797620755	192.479343691050	348.381054410766	1003.345825516086	444.436996299361	527.521915983244	891.589810149778	381.365305367855	585.409110926420	900.015047390860	271.949144140053	536.384272586634	715.341965012501	175.659129240404	502.146298826904	888.625741218887	144.969149091963	549.394603408702	779.693005572479	128.737396818678	579.777174871512	968.604572656774	45.365330694681	584.094231970535	650.315336429883	39.067767761347	396.515058924504	721.207245716556	35.364102080006	313.147355218974	806.235657707484	96.140562054731	336.259963720260	933.119828997486	40.557607947699	302.503726782772	885.344119083788	1109.745943968578	115.803962522663	1119.682239918740	994.384075313280	115.748037055082	726.032205228049	1103.615553191344	691.210064620296	718.938756511197	842.312417222738	694.484800854315	
109	16.514571428571	652.852441106726	1009.985028630377	430.817000167152	825.589894153766	1446.603786763859	261.996263400212	925.574983606062	1374.318548841284	422.680322155794	835.719719359750	1437.737754063061	596.517891502058	801.745561439624	1500.415170393852	417.583956038749	877.732420921134	948.741385379186	548.071902280088	869.182819577536	970.351438582264	274.002601878024	969.957444640747	793.164344564104	510.779410967605	944.667146692548	667.843216005316	583.787808281062	1034.832877687044	637.926493310862	501.436517737784	1066.163404671034	531.075124702672	520.825142676155	895.442448922171	743.708244509709	307.058938891650	791.648706692305	637.597631302110	248.605104236211	861.875567483399	551.988159436716	315.500055535033	852.877768637264	484.419686385733	328.164971643407	825.336811474892	415.013738548341	320.790201971385	731.545944819184	303.438991778980	274.210251926470	776.726659269436	192.364888537467	348.197171655735	1007.540156854324	444.932442876255	527.880080865017	900.810482993121	374.800576672892	586.123202935447	916.027399256348	266.492392266092	536.381887958562	738.360281151281	157.742187186365	502.269926961314	913.070860894000	139.996705491046	549.264544656287	805.954782875242	116.294862521212	580.203295984248	1000.058874041332	46.883374613053	584.649430009297	642.931811678319	39.240151317206	396.406108182894	713.789644438869	35.399060437201	313.135273061102	798.872513632144	96.108421222752	336.169223529832	925.696922618166	40.412770726364	302.435639179442	889.067302439993	1110.498361935421	116.236975127193	1127.834085412663	1005.132154512602	116.558637038918	718.175900287977	1106.699221187165	691.053631460802	704.272744040072	845.818205161647	694.054300833898	
